<svg version="1.2" xmlns="http://www.w3.org/2000/svg" viewBox="0 0 563 666" width="563" height="666">
	<title>Sams logo</title>
	<style>
		tspan { white-space:pre } 
		.t0 { font-size: 108px;fill: #000000;font-weight: 400;font-family: "Audiowide-Regular", "Audiowide" } 
		.s1 { fill: #d6ff34;stroke: #000000;stroke-width: 5 } 
	</style>
	<text id="BUGGY" style="transform: matrix(1,0,0,1,60,540)" >
		<tspan x="0" y="81.1" class="t0">B</tspan><tspan  y="81.1" class="t0">U</tspan><tspan  y="81.1" class="t0">G</tspan><tspan  y="81.1" class="t0">G</tspan><tspan  y="81.1" class="t0">Y</tspan><tspan  y="81.1" class="t0">
</tspan>
	</text>
	<g id="Folder 1 copy 2">
		<path id="Layer 2" fill-rule="evenodd" class="s1" d="m136.5 145.2c0.1-27.6 22.6-49.9 50.2-49.8l11.2 0.1v-60l79.7-0.1c0 0 6.6 30.7-8 30.6-16.4-0.1-35.8 0.1-35.8 0.1l0.5 29.5 112 0.5 0.7-29.5c0 0-19.4-0.4-35.7-0.4-14.7-0.1-7.8-30.7-7.8-30.7l79.6 0.7-0.4 60 7.4 0.1c27.7 0.1 50 22.6 49.8 50.2v16.5l81.8 57.4-0.3 59.2-81.8-57.6-0.2 52 81.8 57.4-0.2 59.2-81.8-57.6-0.3 58 81.9 57.4-0.3 59.2-81.8-57.6v5.5c-0.1 27.6-22.6 49.9-50.2 49.8l-6.9-0.1 0.1 28.8-35.7-0.4v-28.5l-112.4-0.5 0.1 29.4-35.7-0.4v-29.1l-13-0.1c-27.6-0.1-49.9-22.6-49.8-50.2l0.1-11.7-91.3 63.1 0.3-59.2 91.2-62.9 0.3-58-91.3 63.1 0.2-59.2 86.2-59.4 5.1-3.7 0.2-51.8-91.2 63.1 0.2-59.2 91.2-62.9zm207.6 311.8c27.6 0 50-22.4 50-50v-32.4l-116.9 82.4zm50-197.5l-212 149.5c0.7 17.3 10.1 32.3 23.9 40.7l188.1-133.9zm0-68.6c0-15.4-7-29.2-18-38.4l-194 138.5v60.2l212-150.6zm-162-50c-27.7 0-50 22.4-50 50v41.9l126.3-91.9z"/>
	</g>
</svg>